<?xml version="1.0" encoding="UTF-8" standalone="no"?>
<svg width="217.678mm" height="198.882mm"
 viewBox="0 0 2571 2349"
 xmlns="http://www.w3.org/2000/svg" xmlns:xlink="http://www.w3.org/1999/xlink"  version="1.2" baseProfile="tiny">
<desc>Generated with Qt</desc>
<defs>
</defs>
<g fill="none" stroke="black" stroke-width="1" fill-rule="evenodd" stroke-linecap="square" stroke-linejoin="bevel" >

<g fill="none" stroke="#000000" stroke-opacity="1" stroke-width="1" stroke-linecap="square" stroke-linejoin="bevel" transform="matrix(1,0,0,1,0,0)"
font-family="Ubuntu" font-size="45.8333" font-weight="400" font-style="normal" 
>
</g>

<g fill="none" stroke="#000000" stroke-opacity="1" stroke-width="1" stroke-linecap="square" stroke-linejoin="bevel" transform="matrix(11.81,0,0,11.81,0,0)"
font-family="Ubuntu" font-size="45.8333" font-weight="400" font-style="normal" 
>
</g>

<g fill="#ffffff" fill-opacity="1" stroke="none" transform="matrix(0.999914,0,0,0.999914,0,0)"
font-family="Ubuntu" font-size="45.8333" font-weight="400" font-style="normal" 
>
<path vector-effect="none" fill-rule="evenodd" d="M-1,-1 L2572.22,-1 L2572.22,2350.14 L-1,2350.14 L-1,-1"/>
</g>

<g fill="none" stroke="#000000" stroke-opacity="1" stroke-width="1" stroke-linecap="square" stroke-linejoin="bevel" transform="matrix(11.81,0,0,11.81,0,0)"
font-family="Ubuntu" font-size="45.8333" font-weight="400" font-style="normal" 
>
</g>

<g fill="none" stroke="#000000" stroke-opacity="1" stroke-width="1" stroke-linecap="square" stroke-linejoin="bevel" transform="matrix(11.81,0,0,11.81,0,0)"
font-family="Ubuntu" font-size="45.8333" font-weight="400" font-style="normal" 
>
</g>

<g fill="none" stroke="#000000" stroke-opacity="1" stroke-width="1" stroke-linecap="square" stroke-linejoin="bevel" transform="matrix(11.81,0,0,11.81,0,0)"
font-family="Ubuntu" font-size="45.8333" font-weight="400" font-style="normal" 
>
</g>

<g fill="none" stroke="#000000" stroke-opacity="1" stroke-width="1" stroke-linecap="square" stroke-linejoin="bevel" transform="matrix(11.81,0,0,11.81,0,0)"
font-family="Ubuntu" font-size="45.8333" font-weight="400" font-style="normal" 
>
</g>

<g fill="#ffffff" fill-opacity="1" stroke="none" transform="matrix(11.81,0,0,11.81,0,0)"
font-family="Ubuntu" font-size="45.8333" font-weight="400" font-style="normal" 
>
<path vector-effect="non-scaling-stroke" fill-rule="evenodd" d="M0,0 L217.697,0 L217.697,198.894 L0,198.894 L0,0"/>
</g>

<g fill="none" stroke="#000000" stroke-opacity="1" stroke-width="1" stroke-linecap="square" stroke-linejoin="bevel" transform="matrix(11.81,0,0,11.81,0,0)"
font-family="Ubuntu" font-size="45.8333" font-weight="400" font-style="normal" 
>
</g>

<g fill="#000000" fill-opacity="0" stroke="none" transform="matrix(0.999914,0,0,0.999914,0,0)"
font-family="Ubuntu" font-size="45.8333" font-weight="400" font-style="normal" 
>
<path vector-effect="non-scaling-stroke" fill-rule="evenodd" d="M0,0 L2571,0 L2571,2349 L0,2349 L0,0"/>
</g>

<g fill="#4daf4a" fill-opacity="0.4" stroke="#4daf4a" stroke-opacity="1" stroke-width="3.07087" stroke-linecap="square" stroke-linejoin="round" transform="matrix(0.999914,0,0,0.999914,0,0)"
font-family="Ubuntu" font-size="45.8333" font-weight="400" font-style="normal" 
>
<path vector-effect="none" fill-rule="evenodd" d="M1195.26,1086.44 L1300.53,1010.5 L1339.02,863.924 L1412.59,832.215 L1450.84,766.994 L1420.43,624.541 L1452.63,586.632 L1440.63,548.67 L1496.81,492.385 L1549.17,502.231 L1575.97,420.383 L1680.66,498.634 L1689,534.607 L1749.24,591.608 L1758.66,713.897 L1795.11,679.557 L1998.85,600.912 L2028.92,631.317 L2125.16,651.105 L2185.49,727.945 L2179.33,885.648 L2232.03,894.739 L2243.87,920.393 L2216.9,967.204 L2184.02,971.335 L2152.08,1035.31 L2184.91,1178.03 L2165.76,1228.79 L1992.14,1234.99 L1983.56,1259.39 L1881.88,1315.68 L1764.17,1312.06 L1729.33,1348.87 L1424.43,1421.97 L1394.64,1422.15 L1373.94,1388.19 L1376.35,1129.12 L1184.56,1157.09 L1166.93,1132.81 L1195.26,1086.44"/>
<path vector-effect="none" fill-rule="evenodd" d="M663.772,625.729 L677.848,596.159 L762.3,581.333 L868.346,596.237 L908.832,612.801 L931.981,667.165 L1133.03,712.648 L1166.42,744.427 L1288.41,732.612 L1331.72,776.623 L1383.06,776.833 L1432.32,817.334 L1409.3,1041.76 L1446,1051.84 L1418.94,1115.87 L1452.63,1306.29 L1376.07,1402.77 L1332.67,1397.69 L1306.03,1480.28 L1242.3,1479.65 L1245.47,1538.96 L1012.86,1515.28 L1010.98,1433.71 L948.246,1499.72 L895.55,1478.43 L932.808,1264.66 L888.641,1237.55 L865.966,1109.74 L921.465,1042.78 L845.591,980.836 L823.025,1029.17 L744.395,1070.43 L700.88,999.093 L689.649,918.16 L617.719,896.468 L599.098,623.105 L629.853,606.04 L663.772,625.729"/>
<path vector-effect="none" fill-rule="evenodd" d="M1543.84,2115.17 L1639.07,2105.49 L1683.06,1946.43 L1729.7,1906.03 L1723.89,1780.73 L1742.16,1759.26 L1764.06,1768.92 L1782.18,1713.3 L1835.62,1709.04 L1830.09,1652.4 L1870.23,1621.73 L1893.07,1553.7 L1946.14,1516.98 L2023.11,1584.78 L1963.94,1662.35 L2007.76,1732.46 L2046.78,1749.41 L2041.2,1792.29 L2073.92,1791.68 L2144.31,1932.2 L2170.99,1929.41 L2267.05,1999.06 L2263.47,2045.42 L2352.18,2054.26 L2383.61,2090.66 L2350.06,2126.48 L2225.16,2113.48 L2269.73,2159.25 L2268.41,2206.52 L2192.34,2292.67 L2100.63,2317.86 L1957.86,2276.46 L1850.1,2383.33 L1848.77,2454.74 L1779.86,2477.8 L1760.73,2458.6 L1788.08,2338.27 L1767.76,2332.31 L1688.62,2400.78 L1667.08,2394.51 L1641.96,2362.36 L1659.62,2316.31 L1641.43,2282.17 L1696.47,2225.15 L1525.36,2184.35 L1513.49,2160.45 L1543.84,2115.17"/>
<path vector-effect="none" fill-rule="evenodd" d="M-257.1,-235.38 L-75.4983,-235.38 L-51.9212,-125.371 L6.47702,-100.239 L25.8616,-40.3291 L-93.6366,223.671 L-156.921,238.843 L-257.1,132.586"/>
<path vector-effect="none" fill-rule="evenodd" d="M-257.1,2583.42 L-257.1,1943.94 L-168.62,1955.74 L-173.011,1918.99 L-135.4,1909.4 L-64.2689,1925.78 L-36.7749,1964.73 L-7.71035,2054.95 L-20.5875,2078.42 L13.8393,2077.18 L28.3241,2100.84 L30.9574,2218.54 L175.39,2159.03 L195.951,2176.33 L165.084,2286.28 L82.8939,2317.25 L120.414,2414.49 L76.2614,2447.37 L8.8918,2441.01 L-82.4311,2374 L-118.501,2447.18 L-113.047,2490.25 L-154.962,2544.07 L-200.462,2531.18 L-218.832,2583.42"/>
<path vector-effect="none" fill-rule="evenodd" d="M1243.05,1822.5 L1245.18,1526.8 L1311.97,1365.98 L1467.71,1380.92 L1518.92,1296.97 L1553.52,1315.67 L1641.49,1260.07 L1711.01,1280.02 L1733.13,1267.78 L1739.28,1215.09 L2042.53,1162.16 L2059.51,1182.23 L2048.01,1229.18 L2102.48,1231.62 L2139.88,1269.19 L2126.65,1306.77 L2158.36,1369.31 L2287.71,1438.55 L2273.59,1566.48 L2334.39,1696.81 L2341.31,1768.92 L2264.44,1808.46 L2143.75,1795.46 L2143.49,1830.02 L2098.09,1865.41 L1997.27,1821.62 L1979.48,1758.83 L1841.75,1749.13 L1799.64,1859.46 L1755,1857.75 L1773.52,1926.12 L1700.91,1947.42 L1677.85,1985.97 L1680.45,2090.77 L1645.27,2128.06 L1538.13,2121.35 L1528.1,2087.48 L1549.97,2050.69 L1480.93,2019.62 L1463.32,1931.68 L1309.62,1906.65 L1292.29,1853.53 L1259.93,1860.83 L1243.05,1822.5"/>
<path vector-effect="none" fill-rule="evenodd" d="M732.882,2345.4 L882.87,2217.7 L853.995,2148.64 L953.973,2070.94 L960.35,1974.93 L1098.81,1979.99 L1119.13,1936.44 L1184.92,1939.45 L1249.87,1859.36 L1360.6,1813.01 L1385.51,1856.22 L1467.9,1900.65 L1528.11,1965.43 L1517.9,2002.23 L1551.48,2031.72 L1551.55,2084.79 L1502.55,2135.9 L1729.61,2188.34 L1749.95,2212.12 L1732.74,2257.33 L1664.54,2258.86 L1681.75,2301.83 L1647.65,2399.77 L1588.06,2418.98 L1428.44,2357.51 L1425.27,2413.16 L1343.16,2465.57 L1256.43,2483.85 L1202.86,2576.26 L1192.88,2583.42 L918.01,2583.42 L915.459,2572.19 L1010.94,2459.1 L963.147,2452.19 L938.334,2380.04 L806.795,2417.18 L782.431,2392.77 L717.624,2411.64 L706.727,2389.35 L732.882,2345.4"/>
<path vector-effect="none" fill-rule="evenodd" d="M2251.4,-235.38 L2251.46,-223.331 L2226.62,-182.79 L2201.44,-182.162 L2209.86,-144.817 L2164.3,-127.71 L2087.84,-168.7 L2067.23,-119.21 L1951.27,-27.3945 L1951.17,63.172 L1899.48,82.8365 L1887.44,118.111 L1904.23,178.15 L1887.68,225.863 L1942.88,277.498 L1968.33,375.529 L1926.18,397.048 L1819.91,390.756 L1779.37,462.303 L1694.39,497.006 L1661.05,474.988 L1640.39,516.045 L1554.17,547.055 L1440.33,423.933 L1406.38,329.578 L1317.89,284.272 L1312.4,-4.48798 L1332.25,-41.7446 L1270.69,-161.261 L1239.45,-178.143 L1230.54,-235.38"/>
<path vector-effect="none" fill-rule="evenodd" d="M78.3255,1628.29 L42.1844,1608.33 L65.4699,1479.97 L101.876,1319.93 L175.351,1180.02 L183.91,1115.89 L278.757,1082.45 L335.306,1025.14 L401.269,1034.36 L359.091,977.17 L433.155,878.667 L938.708,883.918 L1007.99,951.038 L952.407,1068.05 L914.993,1082.92 L978.19,1184.7 L962.379,1239.79 L1001.4,1264.24 L1000.97,1304.41 L1143.86,1372.13 L1207.57,1371.79 L1228.52,1398.13 L1187.37,1433.58 L1130.42,1440.68 L1088.88,1419.11 L1039.23,1522.38 L976.932,1529.69 L974.671,1587.25 L950.244,1603.62 L840.49,1555.81 L839.419,1622.21 L752.721,1686.07 L276.635,1677.45 L78.3255,1628.29"/>
<path vector-effect="none" fill-rule="evenodd" d="M792.488,509.89 L823.48,401.231 L818.422,335.099 L861.25,287.742 L947.142,255.412 L1008.86,362.722 L971.843,270.839 L969.23,173.9 L988.895,86.9532 L1016.48,79.1334 L1038.32,33.2591 L1158.71,250.21 L1217.62,289.285 L1215.32,329.865 L1245.13,313.762 L1313.39,385.699 L1410.03,287.149 L1474.72,395.95 L1508.51,407.296 L1510.17,486.56 L1477.48,533.482 L1488.11,599.354 L1463.37,625.041 L1485.71,793.78 L1435.22,822.546 L1385.22,808.071 L1319.52,832.89 L1187.93,783.693 L1114.09,841.917 L903.409,864.906 L890.475,772.388 L816.989,673.013 L834.199,580.949 L796.175,575.956 L792.488,509.89"/>
<path vector-effect="none" fill-rule="evenodd" d="M538.042,1799.95 L574.895,1707.23 L603.03,1692.92 L581.479,1543.75 L601.274,1458.67 L997.972,1514.62 L1164.36,1429.94 L1237.44,1426.8 L1315.27,1463.03 L1293.42,1548.92 L1337.77,1788.72 L1153.81,1810.71 L1044.62,2011.52 L971.041,2065.6 L937.214,2061.78 L940.612,2165.91 L882.689,2226.72 L810.887,2260.47 L788.706,2334.41 L714.526,2394.88 L589.209,2387.89 L561.724,2181.69 L597.507,2037.12 L641.714,1965.84 L639.202,1942.68 L611.52,1960.75 L540.102,1897.34 L538.042,1799.95"/>
<path vector-effect="none" fill-rule="evenodd" d="M662.707,2434.23 L752.865,2327.21 L816.205,2190.73 L1467.68,2137.71 L1483.8,2295.49 L1514.62,2300.78 L1536.23,2350.91 L1603.18,2391.45 L1635.96,2500.46 L1680.55,2529.52 L1672.45,2583.42 L665.049,2583.42 L662.707,2434.23"/>
<path vector-effect="none" fill-rule="evenodd" d="M2104.24,1849.96 L2224.68,1824.95 L2576.14,1887.94 L2671.83,2008.59 L2705.56,2005.22 L2771.47,2044.81 L2828.1,2158.24 L2828.1,2216.3 L2807.52,2234.72 L2734.79,2237.03 L2672.8,2292.19 L2605.6,2283.9 L2562.23,2353.74 L2514.06,2343.55 L2493.15,2526.98 L2456.54,2583.42 L2269.66,2583.42 L2280.08,2531.58 L2257.92,2480.83 L2271.6,2424.1 L2231.03,2378.66 L2246.39,2310.25 L2194.02,2297.63 L2092,1907.65 L2104.24,1849.96"/>
<path vector-effect="none" fill-rule="evenodd" d="M2438.92,2583.42 L2467.79,2507.03 L2435.19,2299.41 L2448.17,2269.8 L2528.33,2291.07 L2585.01,2234.71 L2691.67,2212.48 L2755.94,2167.21 L2828.1,2226.03 L2828.1,2310.92 L2808.18,2326.42 L2729.38,2328.34 L2694.13,2449.08 L2765.77,2442.69 L2820.94,2404.25 L2828.1,2417.22 L2828.1,2583.42"/>
<path vector-effect="none" fill-rule="evenodd" d="M790.903,-235.38 L762.229,-52.7682 L725.351,-11.463 L667.846,-24.7276 L662.687,47.2194 L503.281,130.384 L128.944,15.0344 L26.7286,-90.2918 L-22.4593,-235.38"/>
</g>

<g fill="#e41a1c" fill-opacity="0.4" stroke="#e41a1c" stroke-opacity="1" stroke-width="19.6063" stroke-linecap="square" stroke-linejoin="round" transform="matrix(0.999914,0,0,0.999914,0,0)"
font-family="Ubuntu" font-size="45.8333" font-weight="400" font-style="normal" 
>
<path vector-effect="none" fill-rule="evenodd" d="M1195.26,1086.44 L1300.53,1010.5 L1339.02,863.924 L1412.59,832.215 L1450.84,766.994 L1420.43,624.541 L1452.63,586.632 L1440.63,548.67 L1496.81,492.385 L1505.05,493.935 L1554.17,547.055 L1640.39,516.045 L1657.76,481.52 L1680.66,498.634 L1689,534.607 L1749.24,591.608 L1758.66,713.897 L1795.11,679.557 L1998.85,600.912 L2028.92,631.317 L2125.16,651.105 L2185.49,727.945 L2179.33,885.648 L2232.03,894.739 L2243.87,920.393 L2216.9,967.204 L2184.02,971.335 L2152.08,1035.31 L2184.91,1178.03 L2165.76,1228.79 L2095.45,1231.3 L2048.01,1229.18 L2059.51,1182.23 L2042.53,1162.16 L1739.28,1215.09 L1733.13,1267.78 L1711.01,1280.02 L1641.49,1260.07 L1553.52,1315.67 L1518.92,1296.97 L1467.71,1380.92 L1374.09,1371.94 L1376.35,1129.12 L1184.56,1157.09 L1166.93,1132.81 L1195.26,1086.44"/>
<path vector-effect="none" fill-rule="evenodd" d="M663.772,625.729 L677.848,596.159 L762.3,581.333 L868.346,596.237 L908.832,612.801 L931.981,667.165 L1133.03,712.648 L1166.42,744.427 L1288.41,732.612 L1331.72,776.623 L1383.06,776.833 L1424.9,811.228 L1412.59,832.215 L1339.02,863.924 L1300.53,1010.5 L1195.26,1086.44 L1166.93,1132.81 L1184.56,1157.09 L1376.35,1129.12 L1374.09,1371.94 L1311.97,1365.98 L1264.67,1479.87 L1242.3,1479.65 L1245.14,1532.75 L1245.09,1538.92 L1041.26,1518.17 L1088.88,1419.11 L1130.42,1440.68 L1187.37,1433.58 L1228.52,1398.13 L1207.57,1371.79 L1143.86,1372.13 L1000.97,1304.41 L1001.4,1264.24 L962.379,1239.79 L978.19,1184.7 L914.993,1082.92 L952.407,1068.05 L1007.99,951.038 L938.708,883.918 L616.636,880.573 L599.098,623.105 L629.853,606.04 L663.772,625.729"/>
<path vector-effect="none" fill-rule="evenodd" d="M2192.63,2292.33 L2192.34,2292.67 L2100.63,2317.86 L1957.86,2276.46 L1850.1,2383.33 L1848.77,2454.74 L1779.86,2477.8 L1760.73,2458.6 L1788.08,2338.27 L1767.76,2332.31 L1688.62,2400.78 L1667.08,2394.51 L1654.9,2378.93 L1681.75,2301.83 L1664.54,2258.86 L1732.74,2257.33 L1749.95,2212.12 L1729.61,2188.34 L1526.27,2141.38 L1539.64,2121.44 L1645.27,2128.06 L1680.45,2090.77 L1677.85,1985.97 L1700.91,1947.42 L1773.52,1926.12 L1755,1857.75 L1799.64,1859.46 L1841.75,1749.13 L1979.48,1758.83 L1997.27,1821.62 L2098.09,1865.41 L2101.54,1862.72 L2092,1907.65 L2192.63,2292.33"/>
<path vector-effect="none" fill-rule="evenodd" d="M-257.1,-235.38 L-75.4983,-235.38 L-51.9212,-125.371 L6.47702,-100.239 L25.8616,-40.3291 L-93.6366,223.671 L-156.921,238.843 L-257.1,132.586"/>
<path vector-effect="none" fill-rule="evenodd" d="M-257.1,2041.43 L-203.883,2006.17 L-146.728,2016.54 L-125.763,1945.92 L-149.398,1912.97 L-135.4,1909.4 L-64.2689,1925.78 L-36.7749,1964.73 L-7.71035,2054.95 L-20.5875,2078.42 L13.8393,2077.18 L28.3241,2100.84 L30.9574,2218.54 L175.39,2159.03 L195.951,2176.33 L165.084,2286.28 L82.8939,2317.25 L120.414,2414.49 L101.929,2428.26 L96.3397,2417.5 L-75.769,2378.89 L-82.4311,2374 L-91.863,2393.14 L-120.549,2434.18 L-172.003,2446.67 L-257.1,2407.96"/>
<path vector-effect="none" fill-rule="evenodd" d="M1243.05,1822.5 L1245.18,1526.8 L1311.97,1365.98 L1467.71,1380.92 L1518.92,1296.97 L1553.52,1315.67 L1641.49,1260.07 L1711.01,1280.02 L1733.13,1267.78 L1739.28,1215.09 L2042.53,1162.16 L2059.51,1182.23 L2048.01,1229.18 L2102.48,1231.62 L2139.88,1269.19 L2126.65,1306.77 L2158.36,1369.31 L2287.71,1438.55 L2273.59,1566.48 L2334.39,1696.81 L2341.31,1768.92 L2264.44,1808.46 L2143.75,1795.46 L2143.49,1830.02 L2098.09,1865.41 L1997.27,1821.62 L1979.48,1758.83 L1841.75,1749.13 L1799.64,1859.46 L1755,1857.75 L1773.52,1926.12 L1700.91,1947.42 L1677.85,1985.97 L1680.45,2090.77 L1645.27,2128.06 L1538.13,2121.35 L1528.1,2087.48 L1549.97,2050.69 L1480.93,2019.62 L1463.32,1931.68 L1309.62,1906.65 L1292.29,1853.53 L1259.93,1860.83 L1243.05,1822.5"/>
<path vector-effect="none" fill-rule="evenodd" d="M937.92,2083.42 L953.973,2070.94 L954.452,2063.72 L971.041,2065.6 L1044.62,2011.52 L1062.49,1978.66 L1098.81,1979.99 L1119.13,1936.44 L1184.92,1939.45 L1249.87,1859.36 L1257.82,1856.03 L1259.93,1860.83 L1292.29,1853.53 L1309.62,1906.65 L1463.32,1931.68 L1480.93,2019.62 L1549.97,2050.69 L1528.1,2087.48 L1533.03,2104.11 L1502.55,2135.9 L1729.61,2188.34 L1749.95,2212.12 L1732.74,2257.33 L1664.54,2258.86 L1681.75,2301.83 L1647.65,2399.77 L1609.39,2412.1 L1603.18,2391.45 L1536.23,2350.91 L1514.62,2300.78 L1483.8,2295.49 L1467.68,2137.71 L925.438,2181.84 L940.612,2165.91 L937.92,2083.42"/>
<path vector-effect="none" fill-rule="evenodd" d="M2251.4,-235.38 L2251.46,-223.331 L2226.62,-182.79 L2201.44,-182.162 L2209.86,-144.817 L2164.3,-127.71 L2087.84,-168.7 L2067.23,-119.21 L1951.27,-27.3945 L1951.17,63.172 L1899.48,82.8365 L1887.44,118.111 L1904.23,178.15 L1887.68,225.863 L1942.88,277.498 L1968.33,375.529 L1926.18,397.048 L1819.91,390.756 L1779.37,462.303 L1694.39,497.006 L1661.05,474.988 L1640.39,516.045 L1554.17,547.055 L1440.33,423.933 L1406.38,329.578 L1317.89,284.272 L1312.4,-4.48798 L1332.25,-41.7446 L1270.69,-161.261 L1239.45,-178.143 L1230.54,-235.38"/>
<path vector-effect="none" fill-rule="evenodd" d="M78.3255,1628.29 L42.1844,1608.33 L65.4699,1479.97 L101.876,1319.93 L175.351,1180.02 L183.91,1115.89 L278.757,1082.45 L335.306,1025.14 L401.269,1034.36 L359.091,977.17 L433.155,878.667 L938.708,883.918 L1007.99,951.038 L952.407,1068.05 L914.993,1082.92 L978.19,1184.7 L962.379,1239.79 L1001.4,1264.24 L1000.97,1304.41 L1143.86,1372.13 L1207.57,1371.79 L1228.52,1398.13 L1187.37,1433.58 L1130.42,1440.68 L1088.88,1419.11 L1039.23,1522.38 L976.932,1529.69 L974.671,1587.25 L950.244,1603.62 L840.49,1555.81 L839.419,1622.21 L752.721,1686.07 L276.635,1677.45 L78.3255,1628.29"/>
<path vector-effect="none" fill-rule="evenodd" d="M792.488,509.89 L823.48,401.231 L818.422,335.099 L861.25,287.742 L947.142,255.412 L1008.86,362.722 L971.843,270.839 L969.23,173.9 L988.895,86.9532 L1016.48,79.1334 L1038.32,33.2591 L1158.71,250.21 L1217.62,289.285 L1215.32,329.865 L1245.13,313.762 L1313.39,385.699 L1381.11,316.644 L1406.38,329.578 L1440.33,423.933 L1505.04,493.924 L1505.04,493.932 L1496.81,492.385 L1440.63,548.67 L1452.63,586.632 L1420.43,624.541 L1450.84,766.994 L1424.9,811.228 L1383.06,776.833 L1331.72,776.623 L1288.41,732.612 L1166.42,744.427 L1133.03,712.648 L931.981,667.165 L908.832,612.801 L868.346,596.237 L832.289,591.17 L834.199,580.949 L796.175,575.956 L792.488,509.89"/>
<path vector-effect="none" fill-rule="evenodd" d="M538.042,1799.95 L574.895,1707.23 L603.03,1692.92 L601.644,1683.33 L752.721,1686.07 L839.419,1622.21 L840.49,1555.81 L950.244,1603.62 L974.671,1587.25 L976.932,1529.69 L1039.23,1522.38 L1041.26,1518.17 L1245.09,1538.92 L1243.21,1800.03 L1153.81,1810.71 L1044.62,2011.52 L971.041,2065.6 L937.214,2061.78 L940.612,2165.91 L925.438,2181.84 L816.205,2190.73 L752.865,2327.21 L696.698,2393.88 L589.209,2387.89 L561.724,2181.69 L597.507,2037.12 L641.714,1965.84 L639.202,1942.68 L611.52,1960.75 L540.102,1897.34 L538.042,1799.95 M1245.14,1532.75 L1242.3,1479.65 L1264.67,1479.87 L1245.18,1526.8 L1245.14,1532.75"/>
<path vector-effect="none" fill-rule="evenodd" d="M662.707,2434.23 L752.865,2327.21 L816.205,2190.73 L1467.68,2137.71 L1483.8,2295.49 L1514.62,2300.78 L1536.23,2350.91 L1603.18,2391.45 L1635.96,2500.46 L1680.55,2529.52 L1672.45,2583.42 L665.049,2583.42 L662.707,2434.23"/>
<path vector-effect="none" fill-rule="evenodd" d="M2122.87,1846.09 L2224.68,1824.95 L2576.14,1887.94 L2671.83,2008.59 L2705.56,2005.22 L2771.47,2044.81 L2828.1,2158.24 L2828.1,2216.3 L2822.41,2221.39 L2755.94,2167.21 L2691.67,2212.48 L2585.01,2234.71 L2528.33,2291.07 L2448.17,2269.8 L2435.19,2299.41 L2467.79,2507.03 L2438.92,2583.42 L2269.66,2583.42 L2280.08,2531.58 L2257.92,2480.83 L2271.6,2424.1 L2231.03,2378.66 L2246.39,2310.25 L2194.02,2297.63 L2092,1907.65 L2101.54,1862.72 L2122.87,1846.09"/>
<path vector-effect="none" fill-rule="evenodd" d="M2438.92,2583.42 L2467.79,2507.03 L2435.19,2299.41 L2448.17,2269.8 L2528.33,2291.07 L2585.01,2234.71 L2691.67,2212.48 L2755.94,2167.21 L2828.1,2226.03 L2828.1,2310.92 L2808.18,2326.42 L2729.38,2328.34 L2694.13,2449.08 L2765.77,2442.69 L2820.94,2404.25 L2828.1,2417.22 L2828.1,2583.42"/>
<path vector-effect="none" fill-rule="evenodd" d="M790.903,-235.38 L762.229,-52.7682 L725.351,-11.463 L667.846,-24.7276 L662.687,47.2194 L503.281,130.384 L128.944,15.0344 L26.7286,-90.2918 L-22.4593,-235.38"/>
</g>

<g fill="none" stroke="#000000" stroke-opacity="1" stroke-width="1" stroke-linecap="square" stroke-linejoin="bevel" transform="matrix(11.81,0,0,11.81,0,0)"
font-family="Ubuntu" font-size="45.8333" font-weight="400" font-style="normal" 
>
</g>

<g fill="none" stroke="#000000" stroke-opacity="1" stroke-width="1" stroke-linecap="square" stroke-linejoin="bevel" transform="matrix(11.81,0,0,11.81,0,0)"
font-family="Ubuntu" font-size="45.8333" font-weight="400" font-style="normal" 
>
</g>

<g fill="none" stroke="#000000" stroke-opacity="1" stroke-width="1" stroke-linecap="square" stroke-linejoin="bevel" transform="matrix(11.81,0,0,11.81,0,0)"
font-family="Ubuntu" font-size="45.8333" font-weight="400" font-style="normal" 
>
</g>

<g fill="none" stroke="#000000" stroke-opacity="1" stroke-width="1" stroke-linecap="square" stroke-linejoin="bevel" transform="matrix(1,0,0,1,0,0)"
font-family="Ubuntu" font-size="45.8333" font-weight="400" font-style="normal" 
>
</g>

<g fill="none" stroke="#000000" stroke-opacity="1" stroke-width="1" stroke-linecap="square" stroke-linejoin="bevel" transform="matrix(11.81,0,0,11.81,0,0)"
font-family="Ubuntu" font-size="45.8333" font-weight="400" font-style="normal" 
>
</g>

<g fill="none" stroke="#000000" stroke-opacity="1" stroke-width="1" stroke-linecap="square" stroke-linejoin="bevel" transform="matrix(11.81,0,0,11.81,0,0)"
font-family="Ubuntu" font-size="45.8333" font-weight="400" font-style="normal" 
>
</g>

<g fill="none" stroke="#000000" stroke-opacity="1" stroke-width="1" stroke-linecap="square" stroke-linejoin="bevel" transform="matrix(11.81,0,0,11.81,0,0)"
font-family="Ubuntu" font-size="45.8333" font-weight="400" font-style="normal" 
>
</g>

<g fill="none" stroke="#000000" stroke-opacity="1" stroke-width="1" stroke-linecap="square" stroke-linejoin="bevel" transform="matrix(11.81,0,0,11.81,0,0)"
font-family="Ubuntu" font-size="45.8333" font-weight="400" font-style="normal" 
>
</g>

<g fill="none" stroke="#000000" stroke-opacity="1" stroke-width="1" stroke-linecap="square" stroke-linejoin="bevel" transform="matrix(11.81,0,0,11.81,0,0)"
font-family="Ubuntu" font-size="45.8333" font-weight="400" font-style="normal" 
>
</g>

<g fill="none" stroke="#000000" stroke-opacity="1" stroke-width="1" stroke-linecap="square" stroke-linejoin="bevel" transform="matrix(11.81,0,0,11.81,0,0)"
font-family="Ubuntu" font-size="45.8333" font-weight="400" font-style="normal" 
>
</g>

<g fill="none" stroke="#000000" stroke-opacity="1" stroke-width="1" stroke-linecap="square" stroke-linejoin="bevel" transform="matrix(1,0,0,1,0,0)"
font-family="Ubuntu" font-size="45.8333" font-weight="400" font-style="normal" 
>
</g>
</g>
</svg>
