<?xml version="1.0" encoding="UTF-8" standalone="no"?>
<svg width="217.678mm" height="198.882mm"
 viewBox="0 0 2571 2349"
 xmlns="http://www.w3.org/2000/svg" xmlns:xlink="http://www.w3.org/1999/xlink"  version="1.2" baseProfile="tiny">
<desc>Generated with Qt</desc>
<defs>
</defs>
<g fill="none" stroke="black" stroke-width="1" fill-rule="evenodd" stroke-linecap="square" stroke-linejoin="bevel" >

<g fill="none" stroke="#000000" stroke-opacity="1" stroke-width="1" stroke-linecap="square" stroke-linejoin="bevel" transform="matrix(1,0,0,1,0,0)"
font-family="Ubuntu" font-size="45.8333" font-weight="400" font-style="normal" 
>
</g>

<g fill="none" stroke="#000000" stroke-opacity="1" stroke-width="1" stroke-linecap="square" stroke-linejoin="bevel" transform="matrix(11.81,0,0,11.81,0,0)"
font-family="Ubuntu" font-size="45.8333" font-weight="400" font-style="normal" 
>
</g>

<g fill="#ffffff" fill-opacity="1" stroke="none" transform="matrix(0.999914,0,0,0.999914,0,0)"
font-family="Ubuntu" font-size="45.8333" font-weight="400" font-style="normal" 
>
<path vector-effect="none" fill-rule="evenodd" d="M-1,-1 L2572.22,-1 L2572.22,2350.14 L-1,2350.14 L-1,-1"/>
</g>

<g fill="none" stroke="#000000" stroke-opacity="1" stroke-width="1" stroke-linecap="square" stroke-linejoin="bevel" transform="matrix(11.81,0,0,11.81,0,0)"
font-family="Ubuntu" font-size="45.8333" font-weight="400" font-style="normal" 
>
</g>

<g fill="none" stroke="#000000" stroke-opacity="1" stroke-width="1" stroke-linecap="square" stroke-linejoin="bevel" transform="matrix(11.81,0,0,11.81,0,0)"
font-family="Ubuntu" font-size="45.8333" font-weight="400" font-style="normal" 
>
</g>

<g fill="none" stroke="#000000" stroke-opacity="1" stroke-width="1" stroke-linecap="square" stroke-linejoin="bevel" transform="matrix(11.81,0,0,11.81,0,0)"
font-family="Ubuntu" font-size="45.8333" font-weight="400" font-style="normal" 
>
</g>

<g fill="none" stroke="#000000" stroke-opacity="1" stroke-width="1" stroke-linecap="square" stroke-linejoin="bevel" transform="matrix(11.81,0,0,11.81,0,0)"
font-family="Ubuntu" font-size="45.8333" font-weight="400" font-style="normal" 
>
</g>

<g fill="#ffffff" fill-opacity="1" stroke="none" transform="matrix(11.81,0,0,11.81,0,0)"
font-family="Ubuntu" font-size="45.8333" font-weight="400" font-style="normal" 
>
<path vector-effect="non-scaling-stroke" fill-rule="evenodd" d="M0,0 L217.697,0 L217.697,198.894 L0,198.894 L0,0"/>
</g>

<g fill="none" stroke="#000000" stroke-opacity="1" stroke-width="1" stroke-linecap="square" stroke-linejoin="bevel" transform="matrix(11.81,0,0,11.81,0,0)"
font-family="Ubuntu" font-size="45.8333" font-weight="400" font-style="normal" 
>
</g>

<g fill="#000000" fill-opacity="0" stroke="none" transform="matrix(0.999914,0,0,0.999914,0,0)"
font-family="Ubuntu" font-size="45.8333" font-weight="400" font-style="normal" 
>
<path vector-effect="non-scaling-stroke" fill-rule="evenodd" d="M0,0 L2571,0 L2571,2349 L0,2349 L0,0"/>
</g>

<g fill="#e41a1c" fill-opacity="0.4" stroke="#e41a1c" stroke-opacity="1" stroke-width="3.07087" stroke-linecap="square" stroke-linejoin="round" transform="matrix(0.999914,0,0,0.999914,0,0)"
font-family="Ubuntu" font-size="45.8333" font-weight="400" font-style="normal" 
>
<path vector-effect="none" fill-rule="evenodd" d="M382.003,795.287 L693.957,1000.15 L697.981,994.088 L701.285,991.296 L705.205,989.996 L708.853,990.482 L718.784,996.611 L724.688,1000.25 L724.791,998.249 L725.843,991.031 L726.141,989.429 L726.544,987.672 L726.959,986.155 L727.711,983.816 L728.235,982.411 L728.883,980.902 L729.507,979.633 L738.872,962.974 L739.213,962.406 L739.609,961.789 L739.97,961.262 L740.567,960.447 L740.946,959.963 L741.384,959.443 L741.781,959.004 L742.236,958.536 L742.648,958.145 L743.12,957.73 L743.254,957.623 L742.968,957.08 L742.621,956.376 L742.324,955.734 L741.866,954.672 L741.594,953.996 L741.302,953.218 L741.055,952.512 L740.792,951.702 L740.572,950.969 L740.339,950.129 L740.146,949.372 L739.858,948.136 L739.694,947.358 L739.525,946.471 L739.389,945.676 L738.082,937 L624.641,903.319 L624.388,903.541 L619.836,904.604 L617.297,903.703 L615.12,902.243 L611.48,898.499 L583.158,869.364 L581.661,867.31 L580.174,864.641 L579.033,861.96 L564.858,817.434 L544.56,753.67 L544.394,753.117 L544.216,752.485 L544.065,751.918 L535.063,715.714 L533.334,714.143 L530.37,709.092 L490.781,584.718 L489.953,580.56 L489.749,578.403 L490.896,569.133 L495.335,563.867 L499.04,562.496 L500.555,562.23 L1010.18,569.996 L1013.27,553.693 L1013.36,553.253 L1018.72,528.055 L1022.2,521.197 L1035.67,509.206 L1038.98,507.864 L1039.37,507.876 L1040.68,508.131 L1041.66,508.486 L1044.08,510.241 L1044.72,510.967 L1077.51,519.802 L1081.13,513.353 L1081.47,512.785 L1081.78,512.3 L1082.14,511.773 L1082.43,511.382 L1082.81,510.898 L1083.15,510.49 L1083.55,510.051 L1084.12,509.465 L1084.53,509.073 L1084.9,508.748 L1085.33,508.405 L1085.66,508.159 L1086.1,507.867 L1086.49,507.63 L1086.94,507.389 L1088.57,506.609 L1095.98,499.806 L1096.07,499.397 L1097,496.697 L1098.29,493.911 L1099.39,492.124 L1101.07,490.098 L1102.67,488.714 L1104.6,487.611 L1105.99,487.194 L1141.79,476.403 L1141.89,476.373 L1141.98,476.348 L1142.09,476.321 L1142.17,476.301 L1142.27,476.276 L1142.36,476.256 L1142.47,476.234 L1169.95,470.879 L1193.46,466.297 L1205.41,463.967 L1206.28,461.363 L1206.64,460.304 L1207.35,458.549 L1208.04,457.102 L1208.91,455.585 L1209.62,454.537 L1210.1,454.052 L1210.12,452.86 L1210.31,451.298 L1210.65,449.287 L1211.02,447.564 L1211.54,445.679 L1219.29,422.582 L1219.96,420.909 L1220.61,419.525 L1221.42,418.066 L1222.09,417.048 L1223.38,415.644 L1223.41,415.564 L1223.66,414.859 L1223.68,414.799 L1224.27,410.846 L1224.41,410.051 L1224.54,409.355 L1224.71,408.577 L1224.85,407.984 L1225.04,407.227 L1225.08,407.074 L1225.19,406.325 L1225.61,404.22 L1226.21,401.924 L1234.49,377.223 L1234.55,377.074 L1234.59,376.94 L1235.13,375.332 L1251.1,327.703 L1251.12,327.637 L1251.14,327.578 L1251.16,327.513 L1251.18,327.462 L1251.2,327.396 L1251.22,327.338 L1251.24,327.273 L1254.07,319.306 L1254.39,318.457 L1254.7,317.728 L1255.07,316.929 L1255.36,316.334 L1255.76,315.59 L1256.13,314.959 L1256.57,314.275 L1259.23,310.408 L1260.55,308.896 L1271.78,298.886 L1275.72,297.612 L1300.79,302.29 L1300.5,300.964 L1300.04,296.03 L1300.12,291.695 L1300.76,286.825 L1304.29,273.08 L1307.58,266.997 L1312.08,262.991 L1312.77,262.458 L1350.86,236.992 L1355.43,238.753 L1360.31,231.452 L1362.39,229.279 L1377.53,219.155 L1378.76,218.553 L1385.52,216.344 L1385.72,216.282 L1385.91,216.231 L1386.12,216.18 L1386.33,216.135 L1386.54,216.094 L1386.72,216.064 L1386.93,216.034 L1394.81,215.153 L1394.89,215.145 L1394.96,215.138 L1395.04,215.132 L1395.11,215.126 L1395.19,215.121 L1395.26,215.118 L1395.34,215.114 L1395.42,215.112 L1395.5,215.11 L1395.57,215.109 L1395.65,215.109 L1395.73,215.109 L1395.81,215.111 L1395.88,215.113 L1395.96,215.116 L1405.67,215.575 L1416.61,206.816 L1417.01,206.523 L1417.37,206.283 L1417.77,206.034 L1418.18,205.81 L1418.59,205.604 L1418.96,205.442 L1419.38,205.282 L1425.01,203.443 L1425.3,203.358 L1425.57,203.292 L1425.86,203.229 L1426.16,203.178 L1426.46,203.137 L1426.72,203.111 L1427.02,203.092 L1431.72,202.978 L1432.04,202.983 L1432.32,202.998 L1432.63,203.028 L1432.95,203.07 L1433.26,203.124 L1433.54,203.184 L1433.85,203.263 L1444.09,206.274 L1456.36,208.031 L1456.95,208.162 L1457.48,208.318 L1458.07,208.538 L1458.64,208.798 L1459.22,209.106 L1459.72,209.417 L1460.28,209.811 L1460.79,210.209 L1461.33,210.685 L1461.79,211.142 L1462.31,211.698 L1462.8,212.281 L1463.29,212.913 L1463.7,213.503 L1464.16,214.205 L1465.49,216.445 L1488.09,210.216 L1496.41,205.811 L1496.9,205.584 L1497.34,205.41 L1497.85,205.246 L1498.34,205.116 L1498.85,205.016 L1499.3,204.956 L1499.8,204.92 L1500.27,204.917 L1500.78,204.946 L1501.23,205.001 L1501.74,205.094 L1502.23,205.218 L1502.74,205.376 L1503.18,205.543 L1503.67,205.765 L1509.83,208.939 L1527.13,203.385 L1531.7,201.206 L1532.13,201.026 L1532.51,200.888 L1532.95,200.755 L1533.38,200.649 L1533.82,200.565 L1534.21,200.512 L1534.65,200.477 L1538.03,200.395 L1538.3,200.397 L1538.53,200.407 L1538.79,200.427 L1539.05,200.455 L1539.32,200.492 L1539.55,200.532 L1539.81,200.586 L1546.28,202.142 L1546.5,202.202 L1546.7,202.262 L1546.93,202.335 L1547.15,202.413 L1547.37,202.499 L1547.56,202.581 L1547.78,202.679 L1550.32,203.887 L1550.76,204.128 L1551.15,204.364 L1551.59,204.657 L1552.01,204.969 L1552.44,205.312 L1552.81,205.637 L1553.22,206.029 L1553.59,206.412 L1553.99,206.851 L1554.33,207.259 L1554.71,207.743 L1555.08,208.24 L1555.44,208.767 L1555.75,209.252 L1556.09,209.82 L1562.52,221.266 L1562.84,221.873 L1563.02,222.231 L1600.91,217.6 L1617.03,65.9337 L1645.43,53.6093 L1754.44,46.2787 L1850.89,84.5628 L1983.7,202.655 L2046.8,277.847 L2047.03,278.13 L2116.01,367.448 L2135.51,375.778 L2140.79,385.197 L2141.14,387.848 L2151.39,390.934 L2151.48,390.96 L2151.55,390.984 L2151.64,391.013 L2151.71,391.038 L2151.8,391.068 L2151.87,391.096 L2151.95,391.128 L2152.05,391.165 L2152.13,391.199 L2152.21,391.229 L2152.29,391.265 L2152.36,391.297 L2152.45,391.334 L2152.52,391.368 L2152.61,391.407 L2159.48,394.716 L2159.59,394.772 L2159.69,394.823 L2159.81,394.882 L2159.9,394.935 L2160.01,394.997 L2160.11,395.055 L2160.22,395.12 L2160.35,395.196 L2160.46,395.264 L2160.56,395.327 L2160.67,395.399 L2160.76,395.463 L2160.87,395.539 L2160.97,395.607 L2161.08,395.685 L2174.79,405.853 L2181.9,406.447 L2182.1,406.467 L2182.27,406.49 L2182.46,406.519 L2182.62,406.549 L2182.81,406.588 L2182.98,406.627 L2183.17,406.675 L2183.39,406.734 L2183.58,406.791 L2183.74,406.846 L2183.93,406.912 L2184.1,406.973 L2184.28,407.048 L2184.45,407.119 L2184.64,407.203 L2186.9,408.284 L2187.35,408.525 L2187.74,408.764 L2188.18,409.057 L2188.56,409.333 L2188.98,409.676 L2189.36,410.005 L2189.77,410.396 L2190.22,410.858 L2190.61,411.297 L2190.96,411.71 L2191.34,412.194 L2191.66,412.634 L2192.02,413.161 L2192.34,413.651 L2192.68,414.219 L2194.52,417.504 L2204.23,417.268 L2204.43,417.268 L2204.61,417.273 L2204.81,417.283 L2204.99,417.297 L2205.19,417.318 L2205.37,417.341 L2205.58,417.371 L2205.8,417.412 L2206,417.453 L2206.18,417.494 L2206.38,417.545 L2206.56,417.594 L2206.76,417.656 L2206.94,417.715 L2207.13,417.786 L2210.59,419.118 L2222.43,414.897 L2270.74,457.851 L2270.61,458.42 L2270.2,459.91 L2269.8,461.151 L2269.53,461.852 L2270.47,462.042 L2271.03,461.607 L2271.65,461.179 L2272.21,460.844 L2272.86,460.521 L2273.42,460.289 L2273.47,460.274 L2359.28,536.556 L2358.68,540.705 L2357.52,543.815 L2355.89,546.904 L2354.52,548.766 L2365.92,542.462 L2379.27,554.329 L2416.37,604.411 L2416.46,604.987 L2416.63,606.436 L2416.77,608.08 L2416.95,612.304 L2416.97,613.966 L2416.93,615.276 L2417.52,619.925 L2417.67,621.565 L2417.75,623.041 L2417.77,624.702 L2417.68,628.936 L2417.59,630.589 L2417.45,632.05 L2417.23,633.665 L2413.71,653.908 L2413.38,655.46 L2413.03,656.806 L2412.59,658.267 L2411.32,661.854 L2410.77,663.199 L2410.24,664.34 L2409.6,665.546 L2400.87,679.948 L2400.14,680.995 L2399.46,681.852 L2398.67,682.722 L2396.56,684.7 L2395.71,685.378 L2394.93,685.893 L2394.03,686.366 L2382.42,691.069 L2381.96,691.227 L2381.55,691.344 L2381.09,691.449 L2379.89,691.647 L2379.42,691.697 L2379.01,691.717 L2378.54,691.713 L2359.2,690.406 L2359.17,690.614 L2358.88,692.191 L2354.4,711.823 L2353.99,713.318 L2353.58,714.606 L2353.07,715.994 L2351.63,719.374 L2351.02,720.631 L2350.44,721.687 L2349.74,722.791 L2340.35,735.81 L2339.57,736.742 L2338.86,737.493 L2338.02,738.238 L2335.83,739.888 L2334.95,740.433 L2334.14,740.827 L2333.23,741.163 L2321.43,744.08 L2320.5,744.201 L2319.67,744.212 L2318.74,744.115 L2316.37,743.592 L2315.46,743.28 L2314.65,742.907 L2313.76,742.384 L2309.94,739.622 L2300.07,757.183 L2299.37,758.278 L2298.71,759.18 L2297.93,760.103 L2295.87,762.222 L2295.03,762.957 L2294.26,763.524 L2293.38,764.058 L2270.37,775.024 L2269.46,775.348 L2268.63,775.542 L2267.7,775.65 L2265.32,775.65 L2264.39,775.542 L2263.56,775.348 L2262.64,775.024 L2259.53,773.537 L2259.35,773.898 L2242.51,803.859 L2241.8,804.954 L2241.14,805.856 L2240.37,806.779 L2238.31,808.898 L2237.47,809.632 L2236.7,810.199 L2235.81,810.733 L2232.92,812.113 L2232.8,812.605 L2232.39,814.094 L2231.2,817.764 L2230.68,819.145 L2230.18,820.32 L2229.56,821.569 L2212.72,851.529 L2212.02,852.624 L2211.36,853.526 L2210.58,854.449 L2209.7,855.349 L2215.85,866.289 L2216.47,867.538 L2216.98,868.714 L2217.49,870.095 L2218.69,873.764 L2219.1,875.254 L2219.42,876.623 L2219.72,878.195 L2220.3,882.087 L2433.18,682.534 L2433.16,676.966 L2433.17,676.135 L2433.19,675.394 L2433.23,674.566 L2433.38,672.445 L2433.45,671.624 L2433.53,670.895 L2433.63,670.084 L2433.75,669.276 L2433.88,668.479 L2434.01,667.774 L2434.17,666.993 L2434.62,665.012 L2434.81,664.253 L2434.99,663.584 L2435.21,662.848 L2440.28,646.93 L2440.77,645.58 L2441.26,644.428 L2441.85,643.2 L2443.22,640.67 L2475.86,684.73 L2462.92,754.347 L2462.62,754.263 L2462.21,754.124 L2461.75,753.942 L2461.3,753.733 L2460.85,753.498 L2460.46,753.265 L2460.02,752.979 L2458.9,752.178 L2458.48,751.841 L2458.1,751.518 L2457.69,751.133 L2447.88,741.256 L2225.53,977.54 L2225.43,977.644 L2225.34,977.736 L2225.24,977.837 L2224.98,978.094 L2224.88,978.193 L2224.79,978.279 L2224.68,978.374 L2217.64,984.8 L2217.47,985.181 L2217.17,985.824 L2216.9,986.382 L2216.58,986.988 L2215.09,989.644 L2213.08,993.208 L2223.21,1076.68 L2236.34,1100.05 L2236.61,1100.56 L2236.85,1101.02 L2237.1,1101.56 L2237.73,1102.96 L2237.97,1103.51 L2238.17,1104.02 L2238.39,1104.6 L2238.63,1105.27 L2238.83,1105.87 L2239.01,1106.42 L2239.19,1107.04 L2239.63,1108.65 L2239.8,1109.28 L2239.93,1109.86 L2240.08,1110.51 L2241.99,1119.95 L2242.01,1120.07 L2242.03,1120.18 L2242.06,1120.31 L2242.12,1120.63 L2242.14,1120.76 L2242.16,1120.87 L2242.18,1121 L2242.21,1121.14 L2242.23,1121.27 L2242.25,1121.39 L2242.27,1121.51 L2242.33,1121.84 L2242.35,1121.97 L2242.36,1122.08 L2242.38,1122.21 L2244.17,1134.05 L2245.95,1145.89 L2247.14,1153.78 L2247.31,1154.88 L2247.41,1155.69 L2247.49,1156.42 L2247.57,1157.24 L2247.73,1159.35 L2247.77,1160.18 L2247.8,1160.92 L2247.81,1161.75 L2247.81,1162.7 L2247.8,1163.53 L2247.77,1164.27 L2247.73,1165.1 L2247.57,1167.21 L2247.49,1168.03 L2247.41,1168.76 L2247.31,1169.57 L2246.48,1175.06 L2245.72,1180.1 L2248.52,1184.96 L2248.85,1185.56 L2249.13,1186.11 L2249.43,1186.74 L2250.17,1188.42 L2250.45,1189.09 L2250.68,1189.7 L2250.94,1190.4 L2251.21,1191.22 L2251.43,1191.94 L2251.62,1192.61 L2251.82,1193.36 L2252.29,1195.32 L2252.46,1196.09 L2252.6,1196.79 L2252.74,1197.59 L2254.36,1207.81 L2255.54,1210.03 L2256.82,1211.18 L2257.23,1211.57 L2257.59,1211.95 L2257.99,1212.39 L2258.98,1213.59 L2259.36,1214.08 L2259.69,1214.54 L2260.05,1215.07 L2260.45,1215.7 L2260.78,1216.27 L2261.08,1216.8 L2261.39,1217.41 L2262.18,1219.03 L2262.47,1219.67 L2262.57,1219.91 L2263.07,1220.43 L2263.47,1220.88 L2263.81,1221.29 L2264.19,1221.78 L2265.14,1223.09 L2265.5,1223.63 L2265.81,1224.12 L2266.15,1224.69 L2266.52,1225.37 L2266.84,1225.98 L2267.11,1226.54 L2267.4,1227.18 L2268.13,1228.89 L2268.4,1229.57 L2268.63,1230.19 L2268.82,1230.74 L2271.09,1233.79 L2271.2,1233.88 L2271.75,1234.33 L2271.96,1234.52 L2272.15,1234.68 L2272.35,1234.88 L2272.59,1235.1 L2272.79,1235.31 L2272.97,1235.5 L2273.17,1235.71 L2273.21,1235.75 L2273.25,1235.78 L2273.47,1235.92 L2273.66,1236.04 L2273.88,1236.2 L2274.13,1236.38 L2274.34,1236.54 L2274.53,1236.69 L2274.75,1236.87 L2275.29,1237.34 L2275.49,1237.53 L2275.68,1237.7 L2275.88,1237.9 L2297.67,1260.05 L2319.03,1276.76 L2319.24,1276.93 L2319.43,1277.09 L2319.64,1277.28 L2320.17,1277.77 L2320.37,1277.97 L2320.56,1278.15 L2320.76,1278.36 L2320.99,1278.61 L2321.19,1278.83 L2321.36,1279.04 L2321.55,1279.27 L2322.05,1279.88 L2322.24,1280.13 L2322.4,1280.35 L2322.59,1280.6 L2324.71,1283.63 L2327.09,1285.99 L2327.29,1286.2 L2327.47,1286.39 L2327.67,1286.61 L2328.18,1287.19 L2328.37,1287.42 L2328.54,1287.63 L2328.73,1287.87 L2328.95,1288.15 L2329.13,1288.41 L2329.3,1288.64 L2329.48,1288.9 L2329.93,1289.59 L2330.11,1289.87 L2330.26,1290.12 L2330.44,1290.4 L2349.31,1322.9 L2349.6,1323.33 L2349.78,1323.61 L2349.93,1323.85 L2350.1,1324.13 L2350.3,1324.46 L2350.47,1324.76 L2350.61,1325.02 L2350.77,1325.32 L2351.18,1326.11 L2351.23,1326.21 L2355.32,1333.25 L2343.01,1399.45 L2331.78,1445.75 L2279.22,1481.19 L2160.48,1549.62 L2146.3,1551.75 L2141.93,1549.88 L2139.71,1545.13 L2139.69,1545.2 L2139.3,1546.7 L2139.15,1547.17 L2133.51,1553.67 L2080.37,1561.65 L2079.49,1561.68 L2066.07,1560.76 L2065.73,1560.72 L2022.68,1554.06 L2019.44,1552.09 L2009,1540.14 L2006.97,1536.63 L1987.21,1485.27 L1986.67,1483.6 L1986.25,1482.06 L1985.85,1480.27 L1985.57,1478.61 L1985.26,1474.82 L1985.27,1471.44 L1985.61,1467.65 L1985.9,1466 L1986.31,1464.22 L1986.74,1462.68 L1987.29,1461.03 L2007.54,1409.78 L2008.34,1408.09 L2009.12,1406.7 L2010.07,1405.28 L2010.98,1404.15 L2012.06,1403.05 L2013.06,1402.22 L2013.55,1401.9 L2013.53,1401.55 L2013.75,1397.16 L2014.04,1395.24 L2014.47,1393.16 L2014.94,1391.37 L2015.57,1389.45 L2030.41,1351.88 L2030.55,1351.56 L1946.94,1303.68 L1946.87,1303.8 L1946.5,1304.32 L1946.17,1304.78 L1945.79,1305.27 L1945.44,1305.68 L1945.04,1306.12 L1944.4,1306.78 L1943.99,1307.17 L1943.62,1307.5 L1943.19,1307.84 L1942.8,1308.13 L1942.36,1308.42 L1941.96,1308.66 L1941.52,1308.9 L1940.29,1309.49 L1934.36,1312.32 L1934.07,1312.44 L1933.82,1312.54 L1933.53,1312.64 L1933.27,1312.73 L1932.98,1312.81 L1932.73,1312.88 L1932.44,1312.94 L1931.97,1313.02 L1931.68,1313.06 L1931.42,1313.09 L1931.13,1313.11 L1930.86,1313.11 L1930.57,1313.11 L1930.31,1313.1 L1930.02,1313.08 L1903.73,1310.04 L1886.58,1326.48 L1879.52,1345.79 L1878.36,1348.22 L1877.19,1350.14 L1875.73,1351.98 L1874.34,1353.3 L1872.67,1354.44 L1871.82,1354.81 L1872.3,1358.03 L1872.41,1358.83 L1872.5,1359.67 L1872.58,1360.49 L1872.62,1361.03 L1872.67,1361.85 L1872.7,1362.7 L1872.71,1363.53 L1872.71,1364.26 L1872.7,1365.09 L1872.67,1365.93 L1872.63,1366.65 L1914.72,1434.65 L1915.2,1435.51 L1948.46,1500.57 L1950.31,1508.94 L1950.66,1555.51 L1949.46,1562.72 L1946.18,1567.46 L1932.89,1576.91 L1931.12,1577.72 L1918.16,1580.57 L1915.98,1581.05 L1913.25,1580.71 L1910.61,1579.46 L1908.16,1577.33 L1908.13,1577.29 L1907.27,1575.94 L1906.47,1574.45 L1905.75,1572.87 L1903.75,1567.72 L1856.75,1545.67 L1856.78,1546.09 L1856.83,1547.78 L1856.82,1549.44 L1856.77,1550.52 L1856.64,1552.16 L1856.44,1553.82 L1856.19,1555.42 L1855.18,1560.51 L1855.01,1561.28 L1854.82,1562.06 L1854.63,1562.82 L1854.49,1563.3 L1854.26,1564.03 L1854.02,1564.76 L1853.77,1565.46 L1849.87,1575.57 L1849.59,1576.24 L1849.3,1576.91 L1849,1577.54 L1848.79,1577.95 L1848.47,1578.55 L1848.13,1579.14 L1847.78,1579.7 L1845.48,1583.21 L1844.73,1584.21 L1843.93,1585.13 L1843.12,1585.94 L1842.57,1586.41 L1841.7,1587.03 L1840.8,1587.55 L1839.89,1587.96 L1836.91,1588.95 L1836.89,1588.96 L1836.88,1588.96 L1836.86,1588.97 L1836.85,1588.97 L1836.84,1588.97 L1836.83,1588.98 L1836.81,1588.98 L1835.81,1589.3 L1834.48,1589.5 L1833.13,1589.47 L1831.8,1589.22 L1830.96,1588.93 L1829.68,1588.24 L1828.42,1587.34 L1827.24,1586.25 L1823.41,1581.86 L1822.96,1581.31 L1822.52,1580.71 L1822.1,1580.1 L1821.83,1579.68 L1821.44,1579.01 L1821.05,1578.3 L1820.69,1577.59 L1820.43,1577.02 L1820.09,1576.25 L1819.77,1575.45 L1819.47,1574.64 L1819.29,1574.1 L1819.03,1573.25 L1818.98,1573.07 L1812.49,1560.65 L1812.19,1560.49 L1811.74,1560.21 L1811.3,1559.92 L1811.02,1559.71 L1810.59,1559.37 L1810.17,1559 L1809.75,1558.6 L1809.44,1558.29 L1809.05,1557.85 L1808.65,1557.38 L1808.27,1556.89 L1808.03,1556.56 L1807.67,1556.03 L1807.31,1555.47 L1806.97,1554.91 L1802.67,1547.27 L1802.35,1546.66 L1802.04,1546.02 L1802,1545.95 L1742.67,1535.53 L1741.76,1537.11 L1741.71,1537.19 L1741.67,1537.27 L1741.62,1537.34 L1741.59,1537.39 L1741.55,1537.47 L1741.5,1537.54 L1741.45,1537.62 L1741.43,1537.66 L1738.02,1545.99 L1737.94,1546.19 L1737.85,1546.39 L1737.77,1546.59 L1737.71,1546.71 L1737.62,1546.91 L1737.53,1547.11 L1737.44,1547.3 L1737.37,1547.44 L1737.28,1547.63 L1737.19,1547.82 L1737.09,1548 L1737.03,1548.12 L1736.93,1548.31 L1736.83,1548.49 L1736.74,1548.67 L1733.8,1553.89 L1733.45,1554.46 L1733.1,1555.02 L1732.74,1555.55 L1732.49,1555.88 L1732.11,1556.36 L1731.82,1556.72 L1726.3,1587.02 L1726.45,1587.44 L1726.58,1587.84 L1726.72,1588.25 L1726.84,1588.66 L1726.92,1588.94 L1727.04,1589.35 L1727.16,1589.79 L1727.27,1590.21 L1727.35,1590.54 L1727.45,1590.97 L1727.54,1591.42 L1727.63,1591.86 L1727.69,1592.15 L1727.77,1592.59 L1727.85,1593.05 L1727.93,1593.5 L1728.86,1599.69 L1729.02,1601.02 L1729.14,1602.38 L1729.21,1603.73 L1729.23,1604.19 L1728.86,1608.87 L1728.01,1613.35 L1724.65,1620.45 L1722.3,1622.71 L1719.78,1624.15 L1717.96,1624.54 L1706.6,1627.04 L1705.09,1627.08 L1703.57,1626.84 L1702.09,1626.32 L1688.88,1619.05 L1656.19,1601.04 L1649.88,1597.56 L1610.08,1638.71 L1483.44,1769.65 L1483.36,1769.73 L1483.29,1769.81 L1483.21,1769.88 L1151.33,2094.16 L1151.65,2096.29 L1151.88,2100.39 L1151.73,2104.54 L1149.98,2112.06 L1148.44,2115.2 L1146.66,2117.82 L1111.73,2153.92 L1063.27,2181.84 L1047.73,2189.94 L1007.58,2193.5 L982.341,2162.83 L952.005,2085.79 L950.872,2081.16 L950.279,2076.22 L951.331,2066.5 L952.914,2062.31 L954.933,2058.76 L1021.51,1981.27 L956.627,2050.66 L953.214,2052.47 L949.692,2052.7 L946.213,2051.35 L913.501,2022.04 L912.741,2021.25 L911.995,2020.36 L911.296,2019.41 L869.928,1955.72 L869.441,1954.89 L842.694,1905.13 L840.719,1896.05 L845.648,1545.14 L783.61,1582.74 L782.228,1583.32 L562.16,1634.27 L559.618,1634.05 L554.471,1631.91 L550.418,1627.25 L548.959,1619.07 L549,1617.14 L549.568,1613.46 L537.391,1622.07 L524.573,1606.49 L514.556,1592.72 L507.596,1577.52 L508.043,1576.61 L558.022,1512.74 L558.118,1512.62 L558.226,1512.49 L558.323,1512.37 L568.441,1500.32 L569.629,1499.18 L571.025,1498.12 L572.313,1497.4 L573.556,1496.93 L574.897,1496.65 L576.413,1496.59 L577.76,1496.76 L578.413,1496.96 L589.994,1488.48 L591.109,1480.48 L591.542,1478.27 L592.153,1475.88 L592.806,1473.85 L593.517,1472.05 L594.367,1470.27 L595.422,1468.44 L596.442,1466.96 L633.618,1422.67 L634.961,1421.42 L636.543,1420.31 L638.005,1419.58 L639.405,1419.17 L640.92,1419.02 L642.619,1419.16 L644.119,1419.58 L647.213,1421.06 L653.83,1422.72 L655.801,1418.71 L655.942,1417.97 L656.107,1417.19 L656.278,1416.45 L656.471,1415.7 L656.704,1414.86 L656.924,1414.13 L657.381,1412.72 L657.627,1412.01 L657.92,1411.23 L658.192,1410.56 L658.465,1409.93 L658.761,1409.29 L659.108,1408.58 L659.427,1407.97 L663.976,1399.89 L664.397,1398.63 L664.513,1398.3 L664.647,1397.93 L664.769,1397.6 L664.888,1397.29 L665.016,1396.97 L665.162,1396.61 L665.295,1396.3 L665.563,1395.69 L665.701,1395.38 L665.859,1395.04 L666.003,1394.74 L666.143,1394.46 L666.292,1394.17 L666.462,1393.85 L666.616,1393.57 L673.074,1382.08 L673.415,1381.51 L673.811,1380.9 L674.172,1380.37 L674.527,1379.88 L674.907,1379.4 L675.345,1378.88 L675.741,1378.44 L676.532,1377.63 L676.944,1377.24 L677.416,1376.82 L677.842,1376.48 L678.256,1376.18 L678.693,1375.88 L679.191,1375.58 L679.638,1375.34 L686.003,1372.31 L692.19,1367.73 L695.422,1361.29 L700.398,1351.08 L705.128,1340.15 L706.123,1337.81 L706.5,1336.99 L706.947,1336.11 L707.361,1335.35 L707.774,1334.66 L708.223,1333.97 L708.745,1333.23 L709.224,1332.6 L723.28,1315.86 L737.174,1299.3 L738.515,1298.05 L740.094,1296.94 L741.553,1296.21 L742.95,1295.8 L744.463,1295.64 L746.159,1295.79 L747.656,1296.2 L756.133,1300.22 L764.357,1304.11 L764.715,1304.3 L765.114,1304.53 L765.174,1304.57 L765.241,1304.59 L765.503,1304.68 L765.798,1304.8 L766.058,1304.92 L773.702,1308.54 L774.609,1309.09 L775.603,1309.82 L776.46,1310.58 L777.068,1311.21 L777.363,1311.2 L778.011,1311.22 L778.586,1311.28 L779.135,1311.38 L779.706,1311.52 L780.344,1311.73 L780.906,1311.95 L781.011,1312 L770.382,1259.05 L769.968,1255.03 L769.916,1250.5 L771.264,1242.81 L772.758,1239.13 L774.381,1236.25 L775.831,1234.39 L776.162,1234 L776.542,1233.57 L776.885,1233.2 L808.387,1201.78 L797.044,1203.64 L795.41,1203.58 L793.596,1203.13 L792.012,1202.41 L755.777,1177.65 L746.326,1171.19 L744.12,1168.79 L742.816,1166.71 L740.339,1165.84 L738.965,1165.62 L737.017,1164.83 L697.313,1137.7 L695.787,1136.25 L694.201,1134.29 L692.915,1132.24 L691.389,1129.13 L691.093,1128.49 L690.773,1127.75 L690.501,1127.07 L689.525,1124.47 L689.279,1123.76 L689.197,1123.51 L688.543,1122.13 L687.987,1120.8 L687.741,1120.12 L687.448,1119.39 L686.783,1117.48 L686.097,1115.58 L685.852,1114.8 L685.613,1114.11 L685.191,1112.7 L684.747,1111.31 L683.227,1105.72 L682.876,1104.18 L682.723,1103.36 L682.508,1102.59 L682.15,1101.05 L681.026,1095.18 L680.784,1093.57 L680.641,1092.3 L680.406,1091.06 L680.166,1089.46 L679.747,1085.69 L412.689,943.124 L412.434,942.978 L412.147,942.804 L411.895,942.641 L128.39,748.869 L114.228,717.914 L163.287,696.635 L221.205,694.962 L222.358,695.095 L223.643,695.431 L224.769,695.893 L306.294,742.017 L306.382,742.068 L306.482,742.127 L306.57,742.18 L368.241,780.248 L376.152,785.132 L378.458,787.487 L380.694,790.898 L382.003,795.287"/>
</g>

<g fill="#e41a1c" fill-opacity="0.4" stroke="#e41a1c" stroke-opacity="1" stroke-width="3.07087" stroke-linecap="square" stroke-linejoin="round" transform="matrix(0.999914,0,0,0.999914,0,0)"
font-family="Ubuntu" font-size="45.8333" font-weight="400" font-style="normal" 
>
<path vector-effect="none" fill-rule="evenodd" d="M2620.29,-235.096 L2663.84,-110.792 L2357.24,-90.2239 L2252.14,4.62126 L2107.29,-45.7089 L1954.09,-235.096 L1800.82,-235.096 L1674.24,-156.801 L1613.5,-199.055 L1625.23,-235.096"/>
<path vector-effect="none" fill-rule="evenodd" d="M410.455,771.308 L539.849,856.274 L474.885,534.649 L981.075,533.855 L1178.25,432.899 L1293,232.765 L1418.19,168.368 L1569.73,173.91 L1592.46,40.0733 L1752.05,10.6577 L1874.53,57.8579 L2511.33,681.52 L2486.5,781.091 L2250.17,1003.31 L2288.06,1192.98 L2390.4,1327.18 L2360.99,1466.14 L2165.75,1584.89 L1984.88,1566.68 L1832.46,1625.13 L1764.55,1575.61 L1746.98,1648.41 L1656.53,1641.92 L1137.28,2178.74 L1010.72,2229.01 L807.928,1912.72 L809.16,1608.94 L559.028,1669.8 L472.331,1582.32 L746.295,1214.35 L108.329,778.351 L79.3789,710.581 L226.434,659.643 L410.455,771.308"/>
</g>

<g fill="none" stroke="#000000" stroke-opacity="1" stroke-width="1" stroke-linecap="square" stroke-linejoin="bevel" transform="matrix(11.81,0,0,11.81,0,0)"
font-family="Ubuntu" font-size="45.8333" font-weight="400" font-style="normal" 
>
</g>

<g fill="none" stroke="#000000" stroke-opacity="1" stroke-width="1" stroke-linecap="square" stroke-linejoin="bevel" transform="matrix(11.81,0,0,11.81,0,0)"
font-family="Ubuntu" font-size="45.8333" font-weight="400" font-style="normal" 
>
</g>

<g fill="none" stroke="#000000" stroke-opacity="1" stroke-width="1" stroke-linecap="square" stroke-linejoin="bevel" transform="matrix(11.81,0,0,11.81,0,0)"
font-family="Ubuntu" font-size="45.8333" font-weight="400" font-style="normal" 
>
</g>

<g fill="none" stroke="#000000" stroke-opacity="1" stroke-width="1" stroke-linecap="square" stroke-linejoin="bevel" transform="matrix(1,0,0,1,0,0)"
font-family="Ubuntu" font-size="45.8333" font-weight="400" font-style="normal" 
>
</g>

<g fill="none" stroke="#000000" stroke-opacity="1" stroke-width="1" stroke-linecap="square" stroke-linejoin="bevel" transform="matrix(11.81,0,0,11.81,0,0)"
font-family="Ubuntu" font-size="45.8333" font-weight="400" font-style="normal" 
>
</g>

<g fill="none" stroke="#000000" stroke-opacity="1" stroke-width="1" stroke-linecap="square" stroke-linejoin="bevel" transform="matrix(11.81,0,0,11.81,0,0)"
font-family="Ubuntu" font-size="45.8333" font-weight="400" font-style="normal" 
>
</g>

<g fill="none" stroke="#000000" stroke-opacity="1" stroke-width="1" stroke-linecap="square" stroke-linejoin="bevel" transform="matrix(11.81,0,0,11.81,0,0)"
font-family="Ubuntu" font-size="45.8333" font-weight="400" font-style="normal" 
>
</g>

<g fill="none" stroke="#000000" stroke-opacity="1" stroke-width="1" stroke-linecap="square" stroke-linejoin="bevel" transform="matrix(11.81,0,0,11.81,0,0)"
font-family="Ubuntu" font-size="45.8333" font-weight="400" font-style="normal" 
>
</g>

<g fill="none" stroke="#000000" stroke-opacity="1" stroke-width="1" stroke-linecap="square" stroke-linejoin="bevel" transform="matrix(11.81,0,0,11.81,0,0)"
font-family="Ubuntu" font-size="45.8333" font-weight="400" font-style="normal" 
>
</g>

<g fill="none" stroke="#000000" stroke-opacity="1" stroke-width="1" stroke-linecap="square" stroke-linejoin="bevel" transform="matrix(11.81,0,0,11.81,0,0)"
font-family="Ubuntu" font-size="45.8333" font-weight="400" font-style="normal" 
>
</g>

<g fill="none" stroke="#000000" stroke-opacity="1" stroke-width="1" stroke-linecap="square" stroke-linejoin="bevel" transform="matrix(1,0,0,1,0,0)"
font-family="Ubuntu" font-size="45.8333" font-weight="400" font-style="normal" 
>
</g>
</g>
</svg>
